<?xml version="1.0" standalone="no"?>
<!DOCTYPE svg PUBLIC "-//W3C//DTD SVG 20010904//EN"
 "http://www.w3.org/TR/2001/REC-SVG-20010904/DTD/svg10.dtd">
<svg version="1.0" xmlns="http://www.w3.org/2000/svg"
 width="260.000000pt" height="260.000000pt" viewBox="0 0 260.000000 260.000000"
 preserveAspectRatio="xMidYMid meet">
<metadata>
Created by potrace 1.14, written by Peter Selinger 2001-2017
</metadata>
<g transform="translate(0.000000,260.000000) scale(0.100000,-0.100000)"
fill="#000000" stroke="none">
<path d="M760 2100 l0 -280 55 0 55 0 0 168 0 167 78 -168 c54 -117 81 -167
92 -165 8 2 46 72 85 156 l70 152 3 -155 3 -155 59 0 60 0 0 280 0 280 -62 0
-63 0 -75 -171 c-41 -94 -77 -172 -80 -174 -3 -2 -40 74 -82 168 l-77 172 -60
3 -61 3 0 -281z"/>
<path d="M1571 2358 c-27 -72 -191 -530 -191 -534 0 -3 26 -4 58 -2 l57 3 15
43 15 43 104 -3 104 -3 15 -42 14 -43 60 0 c53 0 59 2 53 18 -4 9 -46 127 -95
262 -48 135 -91 253 -95 263 -5 13 -19 17 -56 17 -42 0 -51 -3 -58 -22z m95
-258 l32 -90 -70 0 c-52 0 -69 3 -66 13 3 6 18 49 34 94 16 45 31 79 33 77 3
-3 20 -45 37 -94z"/>
<path d="M760 1300 l0 -280 60 0 60 0 0 100 0 100 38 0 c38 0 38 0 92 -100
l53 -100 64 0 65 0 -20 33 c-10 17 -38 66 -60 108 l-41 76 34 16 c91 43 110
182 37 269 -42 50 -75 58 -237 58 l-145 0 0 -280z m284 159 c33 -26 36 -79 6
-109 -16 -16 -33 -20 -95 -20 l-75 0 0 75 0 75 69 0 c54 0 74 -4 95 -21z"/>
<path d="M1210 1530 l0 -50 85 0 85 0 0 -230 0 -230 55 0 55 0 0 230 0 230 85
0 85 0 0 50 0 50 -225 0 -225 0 0 -50z"/>
<path d="M760 500 l0 -280 180 0 180 0 0 50 0 50 -120 0 -120 0 0 65 0 64 108
3 107 3 3 53 3 52 -110 0 -111 0 0 60 0 60 120 0 120 0 0 50 0 50 -180 0 -180
0 0 -280z"/>
<path d="M1220 500 l0 -280 60 0 60 0 2 173 3 172 95 -170 96 -170 57 -3 57
-3 0 281 0 280 -55 0 -55 0 -2 -176 -3 -176 -96 173 -97 174 -61 3 -61 3 0
-281z"/>
</g>
</svg>
